<svg width="771" height="435" viewBox="0 0 771 435" fill="none" xmlns="http://www.w3.org/2000/svg">
<path d="M354.9 119.2C354.9 111.3 364.2 90.2 369.9 77.8C373.8 68.8 337.8 50.6 334.4 50.6C334.4 55.3 316 79.6 316 93.6C316 105.8 349.9 119.2 354.9 119.2ZM679.7 131.3C679.6 131.3 679.4 131.5 679.4 131.5C676.3 136.7 621 227.4 604.2 240.4C612.7 205.2 641.4 168.3 641.4 160.3C641.4 152.7 624 139.7 612.4 134.2C610.1 133 607.9 131.9 607.3 131.8C606.5 131.7 605.5 131.6 604.5 131.6C604.4 131.6 604.1 131.6 604.1 131.6C598.2 131.8 590 134 588.8 134.2C585.1 135 581.3 135.7 577.3 136.3C587.6 116.2 598.9 98.2 611 84.7C617.5 77.4 626.3 72.6 646.4 74.7C649.5 75 651.2 75.2 652.2 75.3C654.9 75.5 657.8 74.9 658.4 74.7C659.7 74.4 661.3 73.5 662.1 73C663.3 72.1 666.8 69.7 667.2 69.2C671.3 63.4 633.9 56.6 603.6 52.7C602.6 52.6 599.7 52.3 596.9 52.3C594.7 52.3 592.4 52.7 591.8 52.8C586 53.9 580.8 56 576.5 58.9C564.1 67.3 547 100.9 530.2 140.3C517.7 140.7 508.3 140.6 506 140.5C501.6 140.2 492.2 161.3 492.2 168.2C492.1 169.4 492.3 170.3 492.8 170.7C496 171.2 499.7 171.7 503.7 172.1C492.4 190.7 477.7 214 467.3 228C470 217.9 472.5 209.1 472.8 208.1C484.6 158.3 514.2 89.7 518.4 80.6C522.5 71.5 485.3 49.8 479.8 53.4C471.3 79.3 446.3 144.8 440.6 155.6C433.6 144.2 406.9 139 393.7 139C387.9 139 377 149.3 367.2 165.4L313.6 238.1C319 202.8 340.3 156.4 344.7 146.7C348.6 137.7 312.6 117.1 309.2 117.1C309.2 119.1 301 137.8 292.3 160.3C290.5 163.4 248.7 234.7 230.8 256.7C242.7 215.8 266 157.3 266 146.7C266 138.9 237.3 117.1 231.1 117.1C231.1 117.1 193.6 173.1 171.1 210.7C180.2 187.7 187.5 166.8 187.5 162.9C187.5 157.7 161.6 140.6 156.2 140.6C156.2 140.6 121.9 191.2 102.2 224.3C112.3 194 126.5 163 126.5 153.6C126.5 146.1 97.5 130 91.3 130C91.3 148.4 55.2 224.3 55.2 239.9C55.2 246.1 88.5 265.9 92.6 265.9C95.7 255 117.2 223.2 133.8 199.9C126.8 216.5 119 236.1 119 240.5C119 246.7 150.1 265.9 153.9 265.9C158 251.7 200.8 189.5 218.4 164.9C206 203.2 188.4 251.6 188.4 261.7C188.4 267.4 215.3 285.8 222.9 288.7C223.6 289 224.9 289.2 225.3 289.2C225.8 289.2 226.2 289 226.2 289C229.7 286.8 254.5 248.8 274.2 218C273.3 222.8 272.8 227.1 272.8 230.8C272.8 239.9 292.9 253.9 304.9 260.3C307.1 261.5 313 264.7 314.3 265.3C315.7 266 317.1 266.4 318.6 266.4C320.6 266.4 333.8 247 347.3 226.2C347.1 228.5 347 230.9 347 233.2C347 247.4 388.1 266.9 392.3 266.9C395.4 266.9 408.3 242.8 421.8 219.8C420.2 227.8 419.5 236.1 419.5 241.3C419.5 252.9 452.5 265.6 459 266.2H459.3H459.6H459.7C459.7 266.2 459.7 266.2 459.8 266.2C462.2 266.2 489.4 224.2 509.3 192.7C488.5 246.8 471.7 296.7 470.3 297.5C472.7 301.5 498.8 320.4 508.6 314.6C513.9 311.5 532.1 240.5 560 174.3C570.2 174.2 579.6 173.6 586.9 172.7C575.8 194.3 563.5 218.7 563.5 235.3C563.5 244.6 596.9 266.5 602.1 266.5C602.1 266.5 602.9 266.5 603.1 266.5C609.6 266.5 646.5 206.7 665.9 175.6C645.5 226 602.6 354.4 596.3 361.6C596.3 361.6 595.8 372.4 626.1 383.9C627.2 384.3 631.5 384.6 633.7 380.3C645.8 356.7 673 273.8 679.7 256.4C697.6 209.3 712.6 163.1 715.2 157.9C718.7 149.5 685.2 132.4 679.7 131.3ZM431.9 176.9C415.9 203.6 397 231.8 386.1 244.2V243.9C386.1 208.7 412 160 429.3 160C432.7 160 435 162.2 435.8 164.1C436.4 166.3 435.7 170 431.9 176.9Z" fill="#C01C77"/>
</svg>
